<svg xmlns="http://www.w3.org/2000/svg" xmlns:xlink="http://www.w3.org/1999/xlink" version="1.1" x="0px" y="0px" viewBox="0 0 100 125" enable-background="new 0 0 100 100" xml:space="preserve"><polygon points="54.8,7.6 57.4,5.7 52.1,5.7 "/><path d="M39.6,12.7c3.1,0.1,6.2,0.2,9.3,0.2l-4.2-4.1L39.6,12.7z"/><polygon points="44.7,7.6 47.5,5.7 42.1,5.7 "/><polygon points="49.1,5.8 45.5,8.2 49.9,12.5 54.1,8.2 50.6,5.8 "/><polygon points="38.8,5.7 37.4,7.2 38.8,12 44,8.2 40.6,5.7 40.6,5.7 "/><polygon points="60.9,12.1 62.6,7.2 61.1,5.7 58.9,5.7 58.9,5.7 55.6,8.2 "/><path d="M50.9,12.9c3.1,0,6.2-0.1,9.3-0.2l-5.3-3.9L50.9,12.9z"/><path d="M44.8,13.7c-2.4,0-4.8-0.1-7.2-0.2L48.7,26L44.8,13.7z"/><path d="M63.5,13.5L51.8,26.2l15.2-13C65.8,13.3,64.6,13.4,63.5,13.5z"/><path d="M63.3,8l-1.7,4.6c1.9-0.1,3.9-0.2,5.8-0.3L63.3,8z"/><path d="M32.6,12.3c1.8,0.1,3.6,0.2,5.5,0.3L36.6,8L32.6,12.3z"/><path d="M55,13.7L51,26l11.1-12.4C59.7,13.6,57.3,13.7,55,13.7z"/><path d="M54,13.8c-1.3,0-2.6,0-3.9,0c-1.4,0-2.8,0-4.3,0l4.1,13.1L54,13.8z"/><path d="M36.1,13.4c-1-0.1-2.1-0.1-3.1-0.2l15.1,13.1L36.1,13.4z"/><path d="M83.8,60.5c0,18.7-15.2,33.8-33.8,33.8S16.2,79.2,16.2,60.5S31.3,26.7,50,26.7S83.8,41.8,83.8,60.5z M50,32.6  c-16.2,0-29.4,13.1-29.4,29.4S33.7,91.3,50,91.3S79.3,78.2,79.3,62S66.2,32.6,50,32.6z"/><text x="0" y="115" fill="#000000" font-size="5px" font-weight="bold" font-family="'Helvetica Neue', Helvetica, Arial-Unicode, Arial, Sans-serif">Created by B Barrett</text><text x="0" y="120" fill="#000000" font-size="5px" font-weight="bold" font-family="'Helvetica Neue', Helvetica, Arial-Unicode, Arial, Sans-serif">from the Noun Project</text></svg>